<svg width="16" height="17" viewBox="0 0 16 17" fill="none" xmlns="http://www.w3.org/2000/svg">
<path d="M7.0626 16.184L0.282504 9.23132C0.179775 9.12598 0.106838 9.01186 0.0636916 8.88896C0.0212304 8.76606 0 8.63438 0 8.49392C0 8.35347 0.0212304 8.22179 0.0636916 8.09889C0.106838 7.97599 0.179775 7.86186 0.282504 7.75652L7.0626 0.803874C7.25094 0.610745 7.48619 0.509616 7.76835 0.500486C8.05119 0.492059 8.29534 0.593188 8.5008 0.803874C8.70626 0.997003 8.81344 1.23824 8.82234 1.52758C8.83056 1.81763 8.73194 2.06799 8.52648 2.27868L3.49278 7.44049H14.9727C15.2638 7.44049 15.5079 7.54127 15.7052 7.74283C15.9017 7.94508 16 8.19545 16 8.49392C16 8.79239 15.9017 9.04241 15.7052 9.24397C15.5079 9.44622 15.2638 9.54735 14.9727 9.54735H3.49278L8.52648 14.7092C8.71482 14.9023 8.81344 15.1481 8.82234 15.4466C8.83056 15.745 8.73194 15.9908 8.52648 16.184C8.33815 16.3947 8.09845 16.5 7.80738 16.5C7.51632 16.5 7.26806 16.3947 7.0626 16.184Z" fill="#878787"/>
</svg>
